<svg xmlns="http://www.w3.org/2000/svg" width="61" height="61" viewBox="0 0 61 61">
  <g id="Page-1" transform="translate(0.5 0.5)">
    <g id="Icons" transform="translate(-120 -1159)">
      <g id="_110---First-AId-Kit-_Outline_" data-name="110---First-AId-Kit-(Outline)" transform="translate(121 1160)">
        <path id="Path" d="M40,37H33V30H25v7H18v8h7v7h8V45h7V37Z" fill="none" stroke="#aabbf5" stroke-linecap="round" stroke-width="3" fill-rule="evenodd"/>
        <path id="Path-2" data-name="Path" d="M0,24H58V58H0Z" fill="none" stroke="#aabbf5" stroke-linecap="round" stroke-width="3" fill-rule="evenodd"/>
        <path id="Path-3" data-name="Path" d="M0,11H58V24H0Z" fill="none" stroke="#aabbf5" stroke-linecap="round" stroke-width="3" fill-rule="evenodd"/>
        <path id="Path-4" data-name="Path" d="M8,20h8v5.185H8Z" transform="translate(0 -1.185)" fill="none" stroke="#aabbf5" stroke-linecap="round" stroke-width="3" fill-rule="evenodd"/>
        <path id="Path-5" data-name="Path" d="M8,24h8v5.2H8Z" fill="none" stroke="#aabbf5" stroke-linecap="round" stroke-width="3" fill-rule="evenodd"/>
        <path id="Path-6" data-name="Path" d="M42,20h8v5.185H42Z" transform="translate(0 -1.185)" fill="none" stroke="#aabbf5" stroke-linecap="round" stroke-width="3" fill-rule="evenodd"/>
        <path id="Path-7" data-name="Path" d="M42,24h8v5.2H42Z" fill="none" stroke="#aabbf5" stroke-linecap="round" stroke-width="3" fill-rule="evenodd"/>
        <path id="Path-8" data-name="Path" d="M41.83,11a12.982,12.982,0,0,0-25.66,0Z" fill="none" stroke="#aabbf5" stroke-linecap="round" stroke-width="3" fill-rule="evenodd"/>
      </g>
    </g>
  </g>
</svg>
