<svg xmlns="http://www.w3.org/2000/svg" width="41.167" height="61.027" viewBox="0 0 41.167 61.027">
  <g id="_075---Double-Tap" data-name="075---Double-Tap" transform="translate(-0.335 -0.473)">
    <path id="Shape" d="M30.042,61H19.4a8.876,8.876,0,0,1-6.335-2.636L2.008,47.266a4,4,0,0,1,.737-6.237,4.088,4.088,0,0,1,5,.68l5.659,5.682a.966.966,0,0,0,1.076.218.981.981,0,0,0,.616-.926V15a3.99,3.99,0,0,1,4.193-4,4.081,4.081,0,0,1,3.782,4.16v8.363a3.95,3.95,0,0,1,5.719,2.161A4.009,4.009,0,0,1,31.243,25a4.08,4.08,0,0,1,3.782,4.16v.363A4.011,4.011,0,0,1,37.218,29,4.081,4.081,0,0,1,41,33.165V50A10.991,10.991,0,0,1,30.042,61ZM4.776,42.455a1.84,1.84,0,0,0-.974.271,2.005,2.005,0,0,0-.378,3.128l11.054,11.1A6.893,6.893,0,0,0,19.4,59H30.042A8.989,8.989,0,0,0,39,50V33.165A2.11,2.11,0,0,0,37.117,31a1.959,1.959,0,0,0-1.471.542A1.987,1.987,0,0,0,35.025,33v1a1,1,0,0,1-2,0V29.165A2.11,2.11,0,0,0,31.142,27a1.989,1.989,0,0,0-2.092,2v5a1,1,0,0,1-2,0V27.165A2.11,2.11,0,0,0,25.167,25a1.989,1.989,0,0,0-2.092,2v7a1,1,0,0,1-2,0V15.165A2.11,2.11,0,0,0,19.192,13,1.989,1.989,0,0,0,17.1,15V46.682a2.991,2.991,0,0,1-5.108,2.12L6.333,43.119A2.218,2.218,0,0,0,4.776,42.455Z" fill="#aabbf5" stroke="#aabbf5" stroke-width="1"/>
    <path id="Shape-2" data-name="Shape" d="M16.1,26.64a1.021,1.021,0,0,1-.241-.029,13,13,0,1,1,10.246-1.732A1,1,0,0,1,25.014,23.2a11,11,0,1,0-8.674,1.467A1,1,0,0,1,16.1,26.64Z" fill="#aabbf5" stroke="#aabbf5" stroke-width="1"/>
    <path id="Shape-3" data-name="Shape" d="M22.5,26.48h-.01a1,1,0,1,1,.01,0Z" fill="#aabbf5" stroke="#aabbf5" stroke-width="1"/>
    <path id="Shape-4" data-name="Shape" d="M16.1,21.37a.989.989,0,0,1-.414-.09,8,8,0,1,1,6.832-.1,1,1,0,0,1-.876-1.8,5.995,5.995,0,1,0-5.128.079,1,1,0,0,1-.415,1.91Z" fill="#aabbf5" stroke="#aabbf5" stroke-width="1"/>
  </g>
</svg>
