<svg xmlns="http://www.w3.org/2000/svg" width="58.006" height="61.187" viewBox="0 0 58.006 61.187">
  <g id="_53---Kidney-_Outline_" data-name="53---Kidney-(Outline)" transform="translate(1.5 0.599)">
    <path id="Stroke-158" d="M16.7,22S6.2,3,27.7,1s32.374,27.875,25,39c0,0,3.624,19.125-13,19,0,0-10.511,1.75-11-16-.576-20.879-12-21-12-21Z" fill="none" stroke="#fcfdfd" stroke-linecap="round" stroke-width="3" fill-rule="evenodd"/>
    <path id="Stroke-160" d="M38,38.456H34v4" fill="none" stroke="#fcfdfd" stroke-linecap="round" stroke-width="3" fill-rule="evenodd"/>
    <path id="Stroke-162" d="M35.232,25.485,32.4,28.314l2.829,2.828" fill="none" stroke="#fcfdfd" stroke-linecap="round" stroke-width="3" fill-rule="evenodd"/>
    <path id="Stroke-164" d="M26,15v4h4" fill="none" stroke="#fcfdfd" stroke-linecap="round" stroke-width="3" fill-rule="evenodd"/>
    <path id="Stroke-166" d="M33.817,38.213A11.811,11.811,0,0,0,17,38" fill="none" stroke="#fcfdfd" stroke-linecap="round" stroke-width="3" fill-rule="evenodd"/>
    <path id="Stroke-168" d="M32.4,28.314C30.84,26.75,22.185,24.978,17,38" fill="none" stroke="#fcfdfd" stroke-linecap="round" stroke-width="3" fill-rule="evenodd"/>
    <path id="Stroke-170" d="M17,38A16.99,16.99,0,0,1,0,55" fill="none" stroke="#fcfdfd" stroke-linecap="round" stroke-width="3" fill-rule="evenodd"/>
    <path id="Stroke-172" d="M17,38V28" fill="none" stroke="#fcfdfd" stroke-linecap="round" stroke-width="3" fill-rule="evenodd"/>
    <path id="Stroke-174" d="M17,28a8.994,8.994,0,0,1,9-9" fill="none" stroke="#fcfdfd" stroke-linecap="round" stroke-width="3" fill-rule="evenodd"/>
    <path id="Stroke-176" d="M33.425,12a9.995,9.995,0,0,0,12.248,7.071" fill="none" stroke="#fcfdfd" stroke-linecap="round" stroke-width="3" fill-rule="evenodd"/>
    <path id="Stroke-178" d="M49.3,32.594a9.994,9.994,0,0,0-7.071,12.247" fill="none" stroke="#fcfdfd" stroke-linecap="round" stroke-width="3" fill-rule="evenodd"/>
    <path id="Stroke-180" d="M45.673,19.071A9.823,9.823,0,0,0,49.3,32.594" fill="none" stroke="#fcfdfd" stroke-linecap="round" stroke-width="3" fill-rule="evenodd"/>
  </g>
</svg>
