<svg xmlns="http://www.w3.org/2000/svg" width="61" height="51" viewBox="0 0 61 51">
  <g id="Outline_021---Heart-Rate-Monitor-2" transform="translate(0.5 0.5)">
    <path id="Shape" d="M55,50H5a5.006,5.006,0,0,1-5-5V5A5.006,5.006,0,0,1,5,0H55a5.006,5.006,0,0,1,5,5V45A5.006,5.006,0,0,1,55,50ZM5,2A3,3,0,0,0,2,5V45a3,3,0,0,0,3,3H55a3,3,0,0,0,3-3V5a3,3,0,0,0-3-3Z" fill="#fcfdfd" stroke="#fcfdfd" stroke-width="1"/>
    <path id="Shape-2" data-name="Shape" d="M51,14a5,5,0,1,1,5-5A5.006,5.006,0,0,1,51,14Zm0-8a3,3,0,1,0,3,3A3,3,0,0,0,51,6Z" fill="#fcfdfd" stroke="#fcfdfd" stroke-width="1"/>
    <path id="Shape-3" data-name="Shape" d="M51,26a5,5,0,1,1,5-5A5.006,5.006,0,0,1,51,26Zm0-8a3,3,0,1,0,3,3A3,3,0,0,0,51,18Z" fill="#fcfdfd" stroke="#fcfdfd" stroke-width="1"/>
    <path id="Shape-4" data-name="Shape" d="M51,38a5,5,0,1,1,5-5A5.006,5.006,0,0,1,51,38Zm0-8a3,3,0,1,0,3,3A3,3,0,0,0,51,30Z" fill="#fcfdfd" stroke="#fcfdfd" stroke-width="1"/>
    <path id="Shape-5" data-name="Shape" d="M42,38H6a2,2,0,0,1-2-2V6A2,2,0,0,1,6,4H42a2,2,0,0,1,2,2V36A2,2,0,0,1,42,38ZM6,6V36H42V6Z" fill="#fcfdfd" stroke="#fcfdfd" stroke-width="1"/>
    <path id="Shape-6" data-name="Shape" d="M22,33a1,1,0,0,1-.975-.778l-4.1-18.05L13.966,25.258a1,1,0,0,1-1.8.3L11,23.8,9.832,25.555A1,1,0,0,1,9,26H5a1,1,0,0,1,0-2H8.465l1.7-2.555a1.038,1.038,0,0,1,1.664,0L12.6,22.6l3.43-12.861A.989.989,0,0,1,17.019,9a1,1,0,0,1,.957.778l4.014,17.661,1.035-4.656A1,1,0,0,1,24,22H43a1,1,0,0,1,0,2H24.8l-1.826,8.217A1,1,0,0,1,22,33Z" fill="#fcfdfd" stroke="#fcfdfd" stroke-width="1"/>
    <path id="Shape-7" data-name="Shape" d="M10,46H6a2,2,0,0,1-2-2V42a2,2,0,0,1,2-2h4a2,2,0,0,1,2,2v2A2,2,0,0,1,10,46ZM6,42v2h4V42Z" fill="#fcfdfd" stroke="#fcfdfd" stroke-width="1"/>
    <path id="Shape-8" data-name="Shape" d="M20,46H16a2,2,0,0,1-2-2V42a2,2,0,0,1,2-2h4a2,2,0,0,1,2,2v2A2,2,0,0,1,20,46Zm-4-4v2h4V42Z" fill="#fcfdfd" stroke="#fcfdfd" stroke-width="1"/>
    <path id="Shape-9" data-name="Shape" d="M30,46H26a2,2,0,0,1-2-2V42a2,2,0,0,1,2-2h4a2,2,0,0,1,2,2v2A2,2,0,0,1,30,46Zm-4-4v2h4V42Z" fill="#fcfdfd" stroke="#fcfdfd" stroke-width="1"/>
    <path id="Shape-10" data-name="Shape" d="M49,44a1.542,1.542,0,0,1-.2-.02.652.652,0,0,1-.18-.06.564.564,0,0,1-.17-.09.927.927,0,0,1-.16-.12,1.014,1.014,0,0,1,0-1.42c.05-.04.1-.08.16-.12a.564.564,0,0,1,.17-.09.635.635,0,0,1,.18-.06A1,1,0,1,1,49,44Z" fill="#fcfdfd" stroke="#fcfdfd" stroke-width="1"/>
    <path id="Shape-11" data-name="Shape" d="M53,44a1,1,0,0,1-.71-1.71,1.016,1.016,0,0,1,.91-.27.635.635,0,0,1,.18.06.759.759,0,0,1,.18.09l.15.12a1.014,1.014,0,0,1,0,1.42,1.591,1.591,0,0,1-.15.12.759.759,0,0,1-.18.09.652.652,0,0,1-.18.06A1.534,1.534,0,0,1,53,44Z" fill="#fcfdfd" stroke="#fcfdfd" stroke-width="1"/>
    <path id="Shape-12" data-name="Shape" d="M34.5,19a1,1,0,0,1-.548-.164A12.114,12.114,0,0,1,29.807,14.7c-1.149-2.259-1.074-4.546.2-5.8a3.194,3.194,0,0,1,2.755-.857A3.341,3.341,0,0,1,34.5,8.9a3.341,3.341,0,0,1,1.736-.853,3.2,3.2,0,0,1,2.755.857c1.276,1.255,1.351,3.542.19,5.826a12.117,12.117,0,0,1-4.133,4.111A1,1,0,0,1,34.5,19Zm-2.258-9a1.192,1.192,0,0,0-.831.325c-.525.517-.628,1.883.19,3.494a9.078,9.078,0,0,0,2.9,2.971,9.086,9.086,0,0,0,2.886-2.946c.831-1.635.728-3,.2-3.518a1.209,1.209,0,0,0-1.031-.309A1.65,1.65,0,0,0,35.392,11a1.042,1.042,0,0,1-1.783,0,1.649,1.649,0,0,0-1.166-.981A1.258,1.258,0,0,0,32.242,10Z" fill="#fcfdfd" stroke="#fcfdfd" stroke-width="1"/>
    <path id="Shape-13" data-name="Shape" d="M33,34a1,1,0,0,1-1-1V32a1,1,0,0,1,2,0v1A1,1,0,0,1,33,34Z" fill="#fcfdfd" stroke="#fcfdfd" stroke-width="1"/>
    <path id="Shape-14" data-name="Shape" d="M36,34a1,1,0,0,1-1-1V30a1,1,0,0,1,2,0v3A1,1,0,0,1,36,34Z" fill="#fcfdfd" stroke="#fcfdfd" stroke-width="1"/>
    <path id="Shape-15" data-name="Shape" d="M39,34a1,1,0,0,1-1-1V28a1,1,0,0,1,2,0v5A1,1,0,0,1,39,34Z" fill="#fcfdfd" stroke="#fcfdfd" stroke-width="1"/>
  </g>
</svg>
