<svg xmlns="http://www.w3.org/2000/svg" width="60" height="45" viewBox="0 0 60 45"><defs><style>.a{fill:#fff;fill-rule:evenodd;}</style></defs><g transform="translate(0 0)"><g transform="translate(-1039 -740)"><g transform="translate(1039 740)"><path class="a" d="M22,43H58V23H22Zm37,2H21a1,1,0,0,1-1-1V22a1,1,0,0,1,1-1H59a1,1,0,0,1,1,1V44a1,1,0,0,1-1,1Z"/><path class="a" d="M29.962,39H50.038A4.873,4.873,0,0,1,54,35.053V30.947A4.873,4.873,0,0,1,50.038,27H29.962A4.87,4.87,0,0,1,26,30.947v4.106A4.87,4.87,0,0,1,29.962,39M51,41H29a1,1,0,0,1-1-1.093c.007-.074.013-.149.013-.225A2.793,2.793,0,0,0,25.326,37c-.08,0-.158.005-.235.012a1.023,1.023,0,0,1-.766-.258A1,1,0,0,1,24,36.015V29.983a1,1,0,0,1,.325-.738,1.025,1.025,0,0,1,.766-.258c.077.007.155.012.235.012a2.793,2.793,0,0,0,2.691-2.682c0-.076-.006-.151-.013-.225A1,1,0,0,1,29,25H51a1,1,0,0,1,1,1.093c-.007.074-.013.149-.013.225A2.793,2.793,0,0,0,54.674,29c.08,0,.158-.005.235-.012a1.017,1.017,0,0,1,.766.258,1,1,0,0,1,.325.738v6.032a1,1,0,0,1-.325.738,1.016,1.016,0,0,1-.766.258C54.832,37,54.754,37,54.674,37a2.793,2.793,0,0,0-2.691,2.682c0,.076.006.151.013.225A1,1,0,0,1,51,41"/><path class="a" d="M40,31a2,2,0,1,0,2,2,2,2,0,0,0-2-2m0,6a4,4,0,1,1,4-4,4,4,0,0,1-4,4"/><path class="a" d="M21,32H4.217A4.222,4.222,0,0,1,0,27.782V4.216A4.222,4.222,0,0,1,4.217,0H39.783A4.222,4.222,0,0,1,44,4.216V22a1,1,0,1,1-2,0V4.216A2.219,2.219,0,0,0,39.783,2H4.217A2.219,2.219,0,0,0,2,4.216V27.782A2.219,2.219,0,0,0,4.217,30H21a1,1,0,0,1,0,2"/><path class="a" d="M2,9H42V7H2Zm41,2H1a1,1,0,0,1-1-1V6A1,1,0,0,1,1,5H43a1,1,0,0,1,1,1v4a1,1,0,0,1-1,1Z"/><path class="a" d="M15,17H6a1,1,0,0,1,0-2h9a1,1,0,0,1,0,2"/><path class="a" d="M38,17H29a1,1,0,0,1,0-2h9a1,1,0,0,1,0,2"/><path class="a" d="M24,17H20a1,1,0,0,1,0-2h4a1,1,0,0,1,0,2"/></g></g></g></svg>