<svg xmlns="http://www.w3.org/2000/svg" width="43.017" height="58.66" viewBox="0 0 43.017 58.66"><defs><style>.a{fill:#fff;}</style></defs><g transform="translate(-45.313)"><g transform="translate(45.312)"><path class="a" d="M39.419,58.749H4.223A3.915,3.915,0,0,1,.312,54.838V7.911A3.915,3.915,0,0,1,4.223,4H17.91a.978.978,0,1,1,0,1.955H4.223A1.958,1.958,0,0,0,2.268,7.911V54.838a1.958,1.958,0,0,0,1.955,1.955h35.2a1.958,1.958,0,0,0,1.955-1.955V7.911a1.958,1.958,0,0,0-1.955-1.955H25.732a.978.978,0,0,1,0-1.955H39.419A3.915,3.915,0,0,1,43.33,7.911V54.838A3.915,3.915,0,0,1,39.419,58.749Z" transform="translate(-0.312 -0.089)"/><path class="a" d="M29.576,13.777H13.933A2.936,2.936,0,0,1,11,10.844V4.978A.977.977,0,0,1,11.978,4h5.866a.978.978,0,0,1,0,1.955H12.955v4.888a.979.979,0,0,0,.978.978H29.576a.979.979,0,0,0,.978-.978V5.955H25.665a.978.978,0,0,1,0-1.955h5.866a.977.977,0,0,1,.978.978v5.866A2.936,2.936,0,0,1,29.576,13.777Z" transform="translate(-0.551 -0.089)"/><path class="a" d="M25.8,8.8a.977.977,0,0,1-.978-.978V2.933a.979.979,0,0,0-.978-.978H19.933a.979.979,0,0,0-.978.978V7.821a.978.978,0,0,1-1.955,0V2.933A2.936,2.936,0,0,1,19.933,0h3.911a2.936,2.936,0,0,1,2.933,2.933V7.821A.977.977,0,0,1,25.8,8.8Z" transform="translate(-0.685)"/><path class="a" d="M21.978,5.955a.977.977,0,0,1-.371-.078,1.014,1.014,0,0,1-.323-.205,1.128,1.128,0,0,1-.205-.323.921.921,0,0,1,0-.743.884.884,0,0,1,.528-.528.981.981,0,0,1,.743,0,1.018,1.018,0,0,1,.323.206,1,1,0,0,1,.205.322.921.921,0,0,1,0,.743,1.128,1.128,0,0,1-.205.323,1.145,1.145,0,0,1-.323.205A.977.977,0,0,1,21.978,5.955Z" transform="translate(-0.775 -0.089)"/><path class="a" d="M37.24,54.95H5.955A1.958,1.958,0,0,1,4,52.995V10.955A1.958,1.958,0,0,1,5.955,9h5.866a.978.978,0,1,1,0,1.955H5.955V52.995H37.24V10.955H31.374a.978.978,0,1,1,0-1.955H37.24A1.958,1.958,0,0,1,39.2,10.955V52.995A1.958,1.958,0,0,1,37.24,54.95Z" transform="translate(-0.395 -0.201)"/><path class="a" d="M22.8,31.643H20.844a1.958,1.958,0,0,1-1.955-1.955V26.754H15.955A1.958,1.958,0,0,1,14,24.8V22.844a1.958,1.958,0,0,1,1.955-1.955h2.933V17.955A1.958,1.958,0,0,1,20.844,16H22.8a1.958,1.958,0,0,1,1.955,1.955v2.933h2.933a1.958,1.958,0,0,1,1.955,1.955V24.8a1.958,1.958,0,0,1-1.955,1.955H24.754v2.933A1.958,1.958,0,0,1,22.8,31.643Zm-6.844-8.8V24.8h2.933a1.958,1.958,0,0,1,1.955,1.955v2.933H22.8V26.754A1.958,1.958,0,0,1,24.754,24.8h2.933V22.844H24.754A1.958,1.958,0,0,1,22.8,20.888V17.955H20.844v2.933a1.958,1.958,0,0,1-1.955,1.955Z" transform="translate(-0.618 -0.357)"/><path class="a" d="M11.911,40.866H9.955A1.958,1.958,0,0,1,8,38.911V36.955A1.958,1.958,0,0,1,9.955,35h1.955a1.958,1.958,0,0,1,1.955,1.955v1.955A1.958,1.958,0,0,1,11.911,40.866ZM9.955,36.955v1.955h1.956V36.955Z" transform="translate(-0.484 -0.782)"/><path class="a" d="M11.911,48.866H9.955A1.958,1.958,0,0,1,8,46.911V44.955A1.958,1.958,0,0,1,9.955,43h1.955a1.958,1.958,0,0,1,1.955,1.955v1.955A1.958,1.958,0,0,1,11.911,48.866ZM9.955,44.955v1.955h1.956V44.955Z" transform="translate(-0.484 -0.961)"/><path class="a" d="M34.553,38.955H15.978a.978.978,0,0,1,0-1.955H34.553a.978.978,0,0,1,0,1.955Z" transform="translate(-0.641 -0.827)"/><path class="a" d="M34.553,46.955H15.978a.978.978,0,0,1,0-1.955H34.553a.978.978,0,0,1,0,1.955Z" transform="translate(-0.641 -1.005)"/></g></g></svg>