<svg xmlns="http://www.w3.org/2000/svg" width="60" height="60.001" viewBox="0 0 60 60.001"><defs><style>.a{fill:none;stroke:#d1d1d1;stroke-linecap:round;stroke-linejoin:round;stroke-width:2px;}.b{fill:#d1d1d1;}</style></defs><g transform="translate(0 0.001)"><path class="a" d="M13,38c5,0,5.353,2,9,2,5,0,10-6,10-13a14.607,14.607,0,0,0-.632-4.077,26.3,26.3,0,0,0-2.16-5.208c-2.238-4.137-4.715-9.637-5.143-14.343a2.016,2.016,0,0,1,1.6-2.152,12.144,12.144,0,0,1,5.062.1,2,2,0,0,1,1.437,1.52,47.474,47.474,0,0,0,1.653,6.088A13.473,13.473,0,0,1,43,5c8,0,16,6,16,23,0,12-2.917,31-27,31C18,59,22,46,13,46a14.914,14.914,0,0,0-8.7,3.394A1.96,1.96,0,0,1,1,48V44a2,2,0,0,1,.464-1.282A15.906,15.906,0,0,1,13,38Z"/><path class="a" d="M22,40c-3.647,0-4-2-9-2A15.906,15.906,0,0,0,1.464,42.718,2,2,0,0,0,1,44v4a1.96,1.96,0,0,0,3.3,1.394A14.914,14.914,0,0,1,13,46c9,0,5,13,19,13,21.7,0,26.215-15.429,26.9-27.261C57.147,32.628,56.03,34,54,34c-3,0-4-3-8-3s-5,3-8,3c-2.615,0-3.712-2.278-6.6-2.863C29.937,36.206,25.973,40,22,40Z"/><circle class="b" cx="1" cy="1" r="1" transform="translate(31 39)"/><circle class="b" cx="1" cy="1" r="1" transform="translate(48 39)"/><circle class="b" cx="1" cy="1" r="1" transform="translate(40 42)"/><circle class="b" cx="1" cy="1" r="1" transform="translate(46 48)"/><circle class="b" cx="1" cy="1" r="1" transform="translate(32 46)"/><circle class="b" cx="1" cy="1" r="1" transform="translate(38 52)"/><circle class="b" cx="1" cy="1" r="1" transform="translate(24 45)"/><circle class="b" cx="1" cy="1" r="1" transform="translate(28 52)"/></g></svg>