<svg xmlns="http://www.w3.org/2000/svg" width="60.02" height="60" viewBox="0 0 60.02 60"><defs><style>.a{fill:#d1d1d1;}.b{fill:none;stroke:#d1d1d1;stroke-linecap:round;stroke-linejoin:round;stroke-width:2px;}</style></defs><g transform="translate(0.02)"><circle class="a" cx="1" cy="1" r="1" transform="translate(7 34)"/><circle class="a" cx="1" cy="1" r="1" transform="translate(4 31)"/><circle class="a" cx="1" cy="1" r="1" transform="translate(16 31)"/><circle class="a" cx="1" cy="1" r="1" transform="translate(10 31)"/><circle class="a" cx="1" cy="1" r="1" transform="translate(13 34)"/><circle class="a" cx="1" cy="1" r="1" transform="translate(48 31)"/><circle class="a" cx="1" cy="1" r="1" transform="translate(54 31)"/><circle class="a" cx="1" cy="1" r="1" transform="translate(42 31)"/><circle class="a" cx="1" cy="1" r="1" transform="translate(45 34)"/><circle class="a" cx="1" cy="1" r="1" transform="translate(51 34)"/><path class="b" d="M59,1S24.833,19,24.833,40.667c0,4.333,2.25,7,5.081,7,2.919,0,5.169-2.334,5.169-6.917V32.417C35.083,14.417,59,1,59,1Z"/><path class="b" d="M1,29.141.98,56.978a2,2,0,0,0,2,2L57,59a2,2,0,0,0,2-2V29.219a2.011,2.011,0,0,0-2.51-1.937C54.26,27.834,53.291,29,51,29c-3,0-4.625-2-7-2a7,7,0,0,0-3.826,1.234,1.934,1.934,0,0,0-.826,1.265,16.88,16.88,0,0,0-.265,2.918V40.75c0,7.541-4.6,10.917-9.169,10.917-4.513,0-9.081-3.779-9.081-11a26.421,26.421,0,0,1,1.243-7.888C22.8,30.637,25,27,24,27c-5,0-6,2-12,2-4.125,0-5.528-1.361-8.7-1.838A2.005,2.005,0,0,0,1,29.141Z"/></g></svg>