<svg xmlns="http://www.w3.org/2000/svg" width="60" height="56.775" viewBox="0 0 60 56.775"><defs><style>.a{fill:none;stroke:#fff;stroke-linecap:round;stroke-linejoin:round;stroke-width:2px;}</style></defs><g transform="translate(0 -3.225)"><path class="a" d="M49.86,45.316l-1.64-.984a7,7,0,0,1-3.039-3.789h0a1.04,1.04,0,0,0-.735-.68l-1.992-.5A1.921,1.921,0,0,1,41,37.5h0a1.921,1.921,0,0,1,1.454-1.863L45,35V33.662a6,6,0,0,0-.855-3.087l-.4-.662A6,6,0,0,0,38.6,27H35.12A2.12,2.12,0,0,0,33,29.12h0a2.119,2.119,0,0,1-.621,1.5l-.673.673A2.41,2.41,0,0,1,30,32h0a2.41,2.41,0,0,1-1.7-.706l-.376-.376a2.8,2.8,0,0,0-2.212-.81l-8.071.672a32.894,32.894,0,0,1-5.271.017L2,30l.036,2.518L2.908,42a3.546,3.546,0,0,1-.359,1.9h0a2.958,2.958,0,0,0-.16,2.26h0a2.959,2.959,0,0,0,2.54,2.012L14,49l11.459-1.637A2.959,2.959,0,0,0,28,44.433v-.14a2.97,2.97,0,0,0-.057-.58h0a2.7,2.7,0,0,1-.046-.363A3.265,3.265,0,0,1,31.223,40h0a3.3,3.3,0,0,1,1.472.347L34,41a1.7,1.7,0,0,1,1,1l1.75,5.5A2.373,2.373,0,0,1,37,48.559V52.17a2.364,2.364,0,0,0,.519,1.478l2.77,3.464A2.371,2.371,0,0,0,42.138,58h.882a2.366,2.366,0,0,0,1.673-.693h0a2.367,2.367,0,0,1,2.892-.356l2.853,1.712A2.375,2.375,0,0,0,51.656,59h1.559a2.367,2.367,0,0,0,2.275-1.717l1.419-4.964A2.391,2.391,0,0,0,57,51.668V49.005a2.367,2.367,0,0,0-1.978-2.335l-2.711-.452a6.992,6.992,0,0,1-2.451-.9Z"/><path class="a" d="M53,24H51l-8.432-6.559A1.466,1.466,0,0,1,42,16.281v-.006a1.469,1.469,0,0,1,1.262-1.455l3.777-.54a2.947,2.947,0,0,0,2.442-2.2h0a2.947,2.947,0,0,0-1.3-3.213L43.909,6.193a5.669,5.669,0,0,0-4.117-.751l-.668.133A5.672,5.672,0,0,0,35.7,7.733L34.67,9.107a1.682,1.682,0,0,1-1.753.622l-1.643-.411A1.68,1.68,0,0,1,30,7.687h0A1.682,1.682,0,0,0,28.313,6l-8.107.027a22.425,22.425,0,0,1-3.182-.217L5.993,4.265A2,2,0,0,0,3.75,5.871l-2.6,13.613a2,2,0,0,0,.309,1.5L3,23H26l1.12-1.12a1.726,1.726,0,0,0,.323-1.993h0C26.826,18.653,27.631,16.829,29,17l4,1a1.859,1.859,0,0,1,.2.037,3.21,3.21,0,0,1,2.2,1.946l.46,1.117A8,8,0,0,1,37,25.216V27h1.6a6,6,0,0,1,5.145,2.913l.4.662A6,6,0,0,1,45,33.662V35l5.441,3.627a2.529,2.529,0,0,1,.859.974h0A2.528,2.528,0,0,0,53.564,41h1a2.53,2.53,0,0,0,2.169-1.228l1.408-2.347A6,6,0,0,0,59,34.338V30a6,6,0,0,0-2.4-4.8h0A6,6,0,0,0,53,24Z"/><path class="a" d="M26,23l.65.65A4.611,4.611,0,0,1,28,26.91v.429a2.791,2.791,0,0,1-.3,1.252h0a2.8,2.8,0,0,1-2.272,1.538l-7.8.649a32.893,32.893,0,0,1-5.271.017L2,30H2a3.409,3.409,0,0,1-1-2.411V26.412A3.409,3.409,0,0,1,2,24l1-1Z"/><path class="a" d="M32.917,9.729S36,10,37,12"/><path class="a" d="M30,32a7.637,7.637,0,0,1,5,2"/><path class="a" d="M29,17l-1.831-.458A6.046,6.046,0,0,0,23,17h0"/><path class="a" d="M31,40l-2.807-.561A6.514,6.514,0,0,0,24,40h0"/></g></svg>