<svg xmlns="http://www.w3.org/2000/svg" width="51.501" height="57.506" viewBox="0 0 51.501 57.506"><defs><style>.a{fill:none;stroke:#5577F0;stroke-linecap:round;stroke-width:2px;fill-rule:evenodd;}</style></defs><g transform="translate(1 1)"><g transform="translate(0)"><path class="a" d="M10.532,57.14h0C4.715,57.14,0,52.855,0,47.57S4.715,38,10.532,38H21.064v9.57c0,5.285-4.715,9.57-10.532,9.57Z" transform="translate(0 -1.634)"/><path class="a" d="M20,38h0Z" transform="translate(1.064 -1.634)"/><path class="a" d="M20,37.656v0Z" transform="translate(1.064 -1.29)"/><path class="a" d="M47.745,37.7c0,3.7-3.3,6.7-7.373,6.7S33,41.4,33,37.7,36.3,31,40.373,31s7.373,3,7.373,6.7Z" transform="translate(1.756 -1.333)"/><path class="a" d="M43.319,37.871A3.174,3.174,0,1,1,40.16,35a3.026,3.026,0,0,1,3.16,2.871Z" transform="translate(1.969 -1.505)"/><path class="a" d="M10.339,2H6.876C4.367,2,2.811,4.481,4.09,6.442l14,20.911a3.412,3.412,0,0,0,5.572,0L37.266,6.442C38.544,4.481,36.989,2,34.48,2H31.4" transform="translate(0.193 -0.086)"/><path class="a" d="M17.373,2.392c0,1.322-3.285,2.392-4.74,2.392A2.521,2.521,0,0,1,10,2.392,2.521,2.521,0,0,1,12.633,0c1.455,0,4.74,1.071,4.74,2.392Z" transform="translate(0.532)"/><path class="a" d="M23,2.392c0,1.322,3.285,2.392,4.74,2.392a2.521,2.521,0,0,0,2.633-2.392A2.521,2.521,0,0,0,27.74,0C26.285,0,23,1.071,23,2.392Z" transform="translate(1.224)"/></g></g></svg>