<svg xmlns="http://www.w3.org/2000/svg" width="60" height="58" viewBox="0 0 60 58"><defs><style>.a,.b,.c{fill:none;stroke:#fff;stroke-width:2px;fill-rule:evenodd;}.a,.c{stroke-linecap:round;}.c{stroke-linejoin:round;}</style></defs><g transform="translate(-719 -1040)"><g transform="translate(720 1041)"><path class="a" d="M0,38H58V52H0ZM2,52H8v4H2Zm48,0h6v4H50ZM0,38H58V0H0Z"/><path class="b" d="M12,6.45A3.879,3.879,0,0,1,15.315,4a3.781,3.781,0,0,1,3.663,3.607,3.435,3.435,0,0,1-.119,1.363,5.975,5.975,0,0,1-1.932,3.063l-4.858,4.158a.106.106,0,0,1-.138,0L7.073,12.033A5.979,5.979,0,0,1,5.141,8.97a3.435,3.435,0,0,1-.119-1.363A3.781,3.781,0,0,1,8.685,4,3.879,3.879,0,0,1,12,6.45Z"/><path class="c" d="M49,5h4"/><path class="c" d="M46,9h8"/><path class="c" d="M53,13H49"/><path class="c" d="M6,30h8l5-11,6,15,5-9,3,5.038L37,11l3,19H52"/><path class="c" d="M15,45a4,4,0,1,1-4-4,4,4,0,0,1,4,4Z"/><path class="c" d="M36,41H50v8H36Z"/><path class="c" d="M36,41h5v8H36Z"/><path class="c" d="M11,45h0Z"/><path class="c" d="M27.828,42.172a4,4,0,1,1-5.656,0,4,4,0,0,1,5.656,0Z"/><path class="c" d="M25,45v0Z"/></g></g></svg>