<svg xmlns="http://www.w3.org/2000/svg" width="57.434" height="60" viewBox="0 0 57.434 60"><defs><style>.a{fill:none;stroke:#d1d1d1;stroke-linecap:round;stroke-linejoin:round;stroke-width:2px;}</style></defs><g transform="translate(-0.566)"><path class="a" d="M56,27.313a10.316,10.316,0,0,1-2.8,2.108A2.312,2.312,0,0,0,52,31.459V34c0,1,1,2,1,3,0,2-3,3-3,3a3.7,3.7,0,0,1,2,3c0,2-3,3-3,4s2,2,2,6c0,5-6,6-10,6H17.388a2.012,2.012,0,0,1-1.945-1.512C14.451,53.647,16,49,16,49a21.917,21.917,0,0,0,6,4q-3-3-3-9c0-5,5-8,14-8a19.675,19.675,0,0,1,9.728,2.165A2.2,2.2,0,0,0,46,36.233V36c0-2-6-4-9-4H24a8.724,8.724,0,0,0-7.575,4.7A1.3,1.3,0,0,1,14,36.089V36c0-5,4-8,7-8H45a4.724,4.724,0,0,0,5-5c0-2-7-14-15-14a62.948,62.948,0,0,0-8.6.459,1.967,1.967,0,0,0-1.59,2.533A3.716,3.716,0,0,1,25,13c0,1-2,3-5,3C10,16,9,19,9,23c0,2,1,5,1,9V57a2,2,0,0,1-2,2H3.575a2,2,0,0,1-1.953-2.431A69.707,69.707,0,0,0,3,42C3,31,2,28,2,25,2,19,12,1,18,1H46.562a2.152,2.152,0,0,1,1.8,3.331A6.728,6.728,0,0,0,47,8c0,6,10,13,10,17a3.56,3.56,0,0,1-1,2.313Z"/><path class="a" d="M29,15s4,0,6-2"/><path class="a" d="M24,19a31.393,31.393,0,0,0,9,1c6,0,8-4,8-4"/><path class="a" d="M26,23a27.673,27.673,0,0,0,8,1c8,0,10-2,10-2"/></g></svg>