<svg xmlns="http://www.w3.org/2000/svg" width="53.154" height="60" viewBox="0 0 53.154 60"><defs><style>.a{fill:none;stroke:#5577F0;stroke-linecap:round;stroke-linejoin:round;stroke-width:2px;}</style></defs><g transform="translate(-3.422 0)"><path class="a" d="M33,40c-1.493-3.559-4.375-8.025-3.959-21.569a3.552,3.552,0,0,0-.9-2.288l-.03-.03a2.184,2.184,0,0,1-.409-2.521h0a3.151,3.151,0,0,0,.185-1.449C27.889,9,24.8,8,23,8a14.515,14.515,0,0,0-6,1"/><path class="a" d="M24,47c2,0,5,6,11,6a5.764,5.764,0,0,0,6-6c0-4-2-6-4-6s-3,0-4-1h-.053A9.311,9.311,0,0,1,34,44a3.663,3.663,0,0,1-4,4C28,48,26,47,24,47Z"/><path class="a" d="M11.236,58.324A54.669,54.669,0,0,0,14,42l.889,15.117a2,2,0,0,0,2,1.883H43.114a2,2,0,0,0,2-1.883L46,42c0,6.67,2.086,14.036,2.779,16.3a.991.991,0,0,0,.954.7h4.836a1,1,0,0,0,.957-1.285A13.27,13.27,0,0,1,55,54V33c0-7.68-8.774-11.46-14.071-13.383A5.968,5.968,0,0,1,37,14h0c0-4.407,3.107-5.706,3.844-10.744A1.993,1.993,0,0,0,38.858,1H19.7a2,2,0,0,0-1.25.438L15.068,4.146a1,1,0,0,0,.07,1.613L17,7,16,8l1,1-1,1,1,2s-1,3,2,3,5,1,5,3c0,3-19,4-19,15V54a13.27,13.27,0,0,1-.526,3.715A1,1,0,0,0,5.431,59H10.29a.993.993,0,0,0,.946-.676Z"/><path class="a" d="M24,47a3.663,3.663,0,0,0-4,4c0,4,9,4,9,8"/></g></svg>