<svg xmlns="http://www.w3.org/2000/svg" width="47" height="60" viewBox="0 0 47 60"><defs><style>.a,.b{fill:none;stroke:#fff;stroke-linejoin:round;stroke-width:2px;}.a,.b,.c{fill-rule:evenodd;}.b{stroke-linecap:round;}.c{fill:#5577f0;}</style></defs><g transform="translate(-607 -4317)"><g transform="translate(608 4318)"><path class="a" d="M45,14,31,0H0V58H45V14Z"/><path class="a" d="M31,0V14H45Z"/><path class="b" d="M10,35H27"/><path class="b" d="M30,30h7"/><path class="b" d="M15,30H25"/><path class="c" d="M15.525,39.166c-2.845,1.48-3.241,4.712-3.339,7.6l1.707-.708-2.806-2.35c-.981-.822-2.4.585-1.414,1.414q1.4,1.174,2.806,2.351a1.011,1.011,0,0,0,1.707-.707c.073-2.167.178-4.743,2.348-5.873,1.145-.6.133-2.322-1.009-1.727"/><path class="c" d="M16.7,44.816c2.1,2.285,4.89,1.217,7.179-.187l-1.368-.359A3.863,3.863,0,0,0,24.8,46.142c.909.328,4.087-1.22,4.332-.883.753,1.03,2.49.034,1.728-1.01a2.206,2.206,0,0,0-1.633-1.121c-1.457-.109-3.958,1.975-4.992.133a1,1,0,0,0-1.368-.359c-1.416.869-3.267,2.118-4.756.5-.875-.952-2.286.466-1.414,1.414"/><path class="b" d="M19.593,21.092l-2.511-1.283a.511.511,0,0,1-.28-.456v-.769a4.216,4.216,0,0,0,2.39-2.983,1.334,1.334,0,0,0,.944-1.268v-.667a1.332,1.332,0,0,0-.719-1.175c-.293-2.507-1.951-3.522-4.615-3.522-.126,0-.249.005-.371.015a4.007,4.007,0,0,1-2.574-.606,3.354,3.354,0,0,1-.762-.67.133.133,0,0,0-.238.1c.027.233.066.505.125.8.221,1.107.089.945-.339,1.989a6.9,6.9,0,0,0-.46,1.9,1.331,1.331,0,0,0-.714,1.172v.667a1.334,1.334,0,0,0,.944,1.268A4.217,4.217,0,0,0,12.8,18.584v.763a.51.51,0,0,1-.286.46L9.942,21.075A2.175,2.175,0,0,0,9,22.134a9.956,9.956,0,0,0,11.586.014,2.171,2.171,0,0,0-.993-1.056Z"/></g></g></svg>